<svg xmlns="http://www.w3.org/2000/svg" viewBox="0 0 96 96" role="img" aria-label="RevoYacht">
  <rect width="96" height="96" rx="24" fill="#eef5ff"/>
  <path d="M21 70c15 5 36 5 54-1-4 8-18 13-33 12-10-1-18-4-21-11Z" fill="#153a63"/>
  <path d="M24 66c9-2 23-2 34 1-10 3-25 3-34-1Z" fill="#2f5f8d" opacity=".55"/>
  <path d="M31 18h28c13 0 20 8 18 18-2 10-11 15-25 15h-8l20 23H51L33 52v22H21V18h10Zm12 11v13h16c5 0 8-2 9-6 1-4-2-7-8-7H43Z" fill="#14395f"/>
  <path d="M19 72h58" stroke="#14395f" stroke-width="5" stroke-linecap="round"/>
</svg>
